<svg width="387" height="387" viewBox="0 0 387 387" fill="none" xmlns="http://www.w3.org/2000/svg">
<g clip-path="url(#clip0_1028_273)">
<path d="M344 0C367.748 0 387 19.2518 387 43V344C387 367.748 367.748 387 344 387H43C19.2518 387 0 367.748 0 344V43C0 19.2518 19.2518 0 43 0H344ZM59.2998 333.25H117.011V146.917H59.2998V333.25ZM265.432 141.224C225.915 141.224 209.27 171.977 209.249 172.016V146.917H153.904V333.25H209.249V235.437C209.249 209.228 221.314 193.632 244.405 193.632C265.631 193.632 275.821 208.619 275.821 235.437V333.25H333.25V215.275C333.25 165.359 304.954 141.224 265.432 141.224ZM87.8779 53.75C69.0263 53.75 53.7501 69.1459 53.75 88.1338C53.75 107.122 69.0262 122.518 87.8779 122.518C106.73 122.517 121.996 107.122 121.996 88.1338C121.996 69.1459 106.729 53.7501 87.8779 53.75Z" fill="#262626"/>
</g>
<defs>
<clipPath id="clip0_1028_273">
<rect width="387" height="387" fill="white"/>
</clipPath>
</defs>
</svg>
